<svg width="22" height="17" viewBox="0 0 22 17" fill="none" xmlns="http://www.w3.org/2000/svg">
<path d="M16.5 0.0057373C14.55 0.0057373 12.45 0.405737 11 1.50574C9.55 0.405737 7.45 0.0057373 5.5 0.0057373C4.05 0.0057373 2.51 0.225737 1.22 0.795737C0.49 1.12574 0 1.83574 0 2.64574V13.9257C0 15.2257 1.22 16.1857 2.48 15.8657C3.46 15.6157 4.5 15.5057 5.5 15.5057C7.06 15.5057 8.72 15.7657 10.06 16.4257C10.66 16.7257 11.34 16.7257 11.93 16.4257C13.27 15.7557 14.93 15.5057 16.49 15.5057C17.49 15.5057 18.53 15.6157 19.51 15.8657C20.77 16.1957 21.99 15.2357 21.99 13.9257V2.64574C21.99 1.83574 21.5 1.12574 20.77 0.795737C19.49 0.225737 17.95 0.0057373 16.5 0.0057373ZM20 12.7357C20 13.3657 19.42 13.8257 18.8 13.7157C18.05 13.5757 17.27 13.5157 16.5 13.5157C14.8 13.5157 12.35 14.1657 11 15.0157V3.50574C12.35 2.65574 14.8 2.00574 16.5 2.00574C17.42 2.00574 18.33 2.09574 19.2 2.28574C19.66 2.38574 20 2.79574 20 3.26574V12.7357Z" fill="url(#paint0_linear_15_171)"/>
<path d="M12.98 6.51571C12.66 6.51571 12.37 6.31571 12.27 5.99571C12.14 5.60571 12.36 5.17571 12.75 5.05571C14.29 4.55571 16.28 4.39571 18.11 4.60571C18.52 4.65571 18.82 5.02571 18.77 5.43571C18.72 5.84571 18.35 6.14571 17.94 6.09571C16.32 5.90571 14.55 6.05571 13.21 6.48571C13.13 6.49571 13.05 6.51571 12.98 6.51571Z" fill="url(#paint1_linear_15_171)"/>
<path d="M12.98 9.17575C12.66 9.17575 12.37 8.97575 12.27 8.65575C12.14 8.26575 12.36 7.83575 12.75 7.71575C14.28 7.21575 16.28 7.05575 18.11 7.26575C18.52 7.31575 18.82 7.68575 18.77 8.09575C18.72 8.50575 18.35 8.80575 17.94 8.75575C16.32 8.56575 14.55 8.71575 13.21 9.14575C13.13 9.16575 13.05 9.17575 12.98 9.17575Z" fill="url(#paint2_linear_15_171)"/>
<path d="M12.98 11.8358C12.66 11.8358 12.37 11.6358 12.27 11.3158C12.14 10.9258 12.36 10.4958 12.75 10.3758C14.28 9.87578 16.28 9.71578 18.11 9.92578C18.52 9.97578 18.82 10.3458 18.77 10.7558C18.72 11.1658 18.35 11.4558 17.94 11.4158C16.32 11.2258 14.55 11.3758 13.21 11.8058C13.13 11.8258 13.05 11.8358 12.98 11.8358Z" fill="url(#paint3_linear_15_171)"/>
<defs>
<linearGradient id="paint0_linear_15_171" x1="10.995" y1="0.0057373" x2="10.995" y2="16.6507" gradientUnits="userSpaceOnUse">
<stop stop-color="#B629F8"/>
<stop offset="1" stop-color="#800ADD"/>
</linearGradient>
<linearGradient id="paint1_linear_15_171" x1="15.504" y1="4.51562" x2="15.504" y2="6.51571" gradientUnits="userSpaceOnUse">
<stop stop-color="#B629F8"/>
<stop offset="1" stop-color="#800ADD"/>
</linearGradient>
<linearGradient id="paint2_linear_15_171" x1="15.504" y1="7.17566" x2="15.504" y2="9.17575" gradientUnits="userSpaceOnUse">
<stop stop-color="#B629F8"/>
<stop offset="1" stop-color="#800ADD"/>
</linearGradient>
<linearGradient id="paint3_linear_15_171" x1="15.504" y1="9.83569" x2="15.504" y2="11.8358" gradientUnits="userSpaceOnUse">
<stop stop-color="#B629F8"/>
<stop offset="1" stop-color="#800ADD"/>
</linearGradient>
</defs>
</svg>
