<svg width="73" height="46" viewBox="0 0 73 46" fill="none" xmlns="http://www.w3.org/2000/svg">
<path d="M19.832 12.352L22.232 17.68L7.064 24.016L22.232 30.16L19.832 35.68L0.632 27.376V20.704L19.832 12.352ZM38.7226 0.831998L45.3466 2.32L34.0666 45.376L27.3946 43.84L38.7226 0.831998ZM52.8601 12.352L72.0601 20.704V27.376L52.8601 35.68L50.4601 30.16L65.6281 24.016L50.4601 17.68L52.8601 12.352Z" fill="#141414"/>
<path d="M19.832 12.352L20.7438 11.9413L20.3383 11.0412L19.4331 11.435L19.832 12.352ZM22.232 17.68L22.6174 18.6027L23.5659 18.2065L23.1438 17.2693L22.232 17.68ZM7.064 24.016L6.67856 23.0933L4.43553 24.0302L6.68857 24.9428L7.064 24.016ZM22.232 30.16L23.1491 30.5587L23.558 29.6182L22.6074 29.2331L22.232 30.16ZM19.832 35.68L19.435 36.5978L20.3511 36.994L20.7491 36.0787L19.832 35.68ZM0.632 27.376H-0.368V28.033L0.235037 28.2938L0.632 27.376ZM0.632 20.704L0.233106 19.787L-0.368 20.0485V20.704H0.632ZM18.9202 12.7627L21.3202 18.0907L23.1438 17.2693L20.7438 11.9413L18.9202 12.7627ZM21.8466 16.7573L6.67856 23.0933L7.44945 24.9387L22.6174 18.6027L21.8466 16.7573ZM6.68857 24.9428L21.8566 31.0868L22.6074 29.2331L7.43943 23.0892L6.68857 24.9428ZM21.3149 29.7613L18.9149 35.2813L20.7491 36.0787L23.1491 30.5587L21.3149 29.7613ZM20.229 34.7622L1.02896 26.4582L0.235037 28.2938L19.435 36.5978L20.229 34.7622ZM1.632 27.376V20.704H-0.368V27.376H1.632ZM1.03089 21.621L20.2309 13.269L19.4331 11.435L0.233106 19.787L1.03089 21.621ZM38.7226 0.831998L38.9418 -0.143688L38.0012 -0.35499L37.7556 0.577292L38.7226 0.831998ZM45.3466 2.32L46.314 2.57343L46.5765 1.57136L45.5658 1.34431L45.3466 2.32ZM34.0666 45.376L33.8423 46.3505L34.788 46.5682L35.034 45.6294L34.0666 45.376ZM27.3946 43.84L26.4276 43.5853L26.1648 44.583L27.1703 44.8145L27.3946 43.84ZM38.5034 1.80768L45.1275 3.29568L45.5658 1.34431L38.9418 -0.143688L38.5034 1.80768ZM44.3793 2.06657L33.0993 45.1226L35.034 45.6294L46.314 2.57343L44.3793 2.06657ZM34.291 44.4015L27.619 42.8655L27.1703 44.8145L33.8423 46.3505L34.291 44.4015ZM28.3616 44.0947L39.6896 1.0867L37.7556 0.577292L26.4276 43.5853L28.3616 44.0947ZM52.8601 12.352L53.259 11.435L52.3538 11.0412L51.9484 11.9413L52.8601 12.352ZM72.0601 20.704H73.0601V20.0485L72.459 19.787L72.0601 20.704ZM72.0601 27.376L72.4571 28.2938L73.0601 28.033V27.376H72.0601ZM52.8601 35.68L51.9431 36.0787L52.341 36.994L53.2571 36.5978L52.8601 35.68ZM50.4601 30.16L50.0847 29.2331L49.1341 29.6182L49.5431 30.5587L50.4601 30.16ZM65.6281 24.016L66.0036 24.9428L68.2566 24.0302L66.0136 23.0933L65.6281 24.016ZM50.4601 17.68L49.5484 17.2693L49.1262 18.2065L50.0747 18.6027L50.4601 17.68ZM52.4612 13.269L71.6612 21.621L72.459 19.787L53.259 11.435L52.4612 13.269ZM71.0601 20.704V27.376H73.0601V20.704H71.0601ZM71.6632 26.4582L52.4632 34.7622L53.2571 36.5978L72.4571 28.2938L71.6632 26.4582ZM53.7772 35.2813L51.3772 29.7613L49.5431 30.5587L51.9431 36.0787L53.7772 35.2813ZM50.8356 31.0868L66.0036 24.9428L65.2527 23.0892L50.0847 29.2331L50.8356 31.0868ZM66.0136 23.0933L50.8456 16.7573L50.0747 18.6027L65.2427 24.9387L66.0136 23.0933ZM51.3719 18.0907L53.7719 12.7627L51.9484 11.9413L49.5484 17.2693L51.3719 18.0907Z" fill="black"/>
</svg>
